<?xml version="1.0" encoding="UTF-8" standalone="no"?>
<!-- Created with Inkscape (http://www.inkscape.org/) -->

<svg
   version="1.0"
   id="svg2"
   sodipodi:version="0.32"
   inkscape:version="0.91 r13725"
   sodipodi:docname="Logo grupy branca.svg"
   width="392.31766pt"
   height="70.653671pt"
   xmlns:inkscape="http://www.inkscape.org/namespaces/inkscape"
   xmlns:sodipodi="http://sodipodi.sourceforge.net/DTD/sodipodi-0.dtd"
   xmlns:xlink="http://www.w3.org/1999/xlink"
   xmlns="http://www.w3.org/2000/svg"
   xmlns:svg="http://www.w3.org/2000/svg"
   xmlns:rdf="http://www.w3.org/1999/02/22-rdf-syntax-ns#"
   xmlns:cc="http://creativecommons.org/ns#"
   xmlns:dc="http://purl.org/dc/elements/1.1/">
  <metadata
     id="metadata371">
    <rdf:RDF>
      <cc:Work
         rdf:about="">
        <dc:format>image/svg+xml</dc:format>
        <dc:type
           rdf:resource="http://purl.org/dc/dcmitype/StillImage" />
        <dc:title />
      </cc:Work>
    </rdf:RDF>
  </metadata>
  <sodipodi:namedview
     inkscape:window-height="1056"
     inkscape:window-width="1920"
     inkscape:pageshadow="2"
     inkscape:pageopacity="0.0"
     guidetolerance="10.0"
     gridtolerance="10.0"
     objecttolerance="10.0"
     borderopacity="1.0"
     bordercolor="#666666"
     pagecolor="#ffffff"
     id="base"
     inkscape:zoom="0.75878363"
     inkscape:cx="497.09909"
     inkscape:cy="191.33177"
     inkscape:window-x="0"
     inkscape:window-y="24"
     inkscape:current-layer="svg2"
     width="210mm"
     height="40mm"
     units="mm"
     showgrid="false"
     inkscape:window-maximized="1"
     inkscape:showpageshadow="2"
     inkscape:pagecheckerboard="0"
     inkscape:deskcolor="#d1d1d1"
     inkscape:document-units="pt" />
  <defs
     id="defs4">
    <linearGradient
       id="linearGradient4671">
      <stop
         style="stop-color:#ffd43b;stop-opacity:1;"
         offset="0"
         id="stop4673" />
      <stop
         style="stop-color:#ffe873;stop-opacity:1"
         offset="1"
         id="stop4675" />
    </linearGradient>
    <linearGradient
       id="linearGradient4689">
      <stop
         style="stop-color:#5a9fd4;stop-opacity:1;"
         offset="0"
         id="stop4691" />
      <stop
         style="stop-color:#306998;stop-opacity:1;"
         offset="1"
         id="stop4693" />
    </linearGradient>
    <linearGradient
       inkscape:collect="always"
       xlink:href="#linearGradient4689"
       id="linearGradient1"
       gradientUnits="userSpaceOnUse"
       gradientTransform="matrix(1.3695303,0,0,1.3827523,203.18992,119.47736)"
       x1="26.648937"
       y1="20.603781"
       x2="135.66525"
       y2="114.39767" />
    <linearGradient
       inkscape:collect="always"
       xlink:href="#linearGradient4671"
       id="linearGradient2"
       gradientUnits="userSpaceOnUse"
       gradientTransform="matrix(1.3695303,0,0,1.3827523,203.18992,119.47736)"
       x1="150.96111"
       y1="192.35176"
       x2="112.03144"
       y2="137.27299" />
  </defs>
  <g
     aria-label="grupy-sanca"
     id="text3522"
     style="line-height:0%;letter-spacing:0px;word-spacing:0px;fill:#ffffff;stroke-width:0.647363px">
    <path
       d="m 146.50529,57.828463 q -1.06814,0.712097 -4.18357,1.869254 -3.02641,1.068145 -7.12097,1.068145 -4.18356,0 -7.92207,-1.335181 -3.6495,-1.335182 -6.40887,-4.094557 -2.75938,-2.848387 -4.3616,-7.031956 -1.60221,-4.183568 -1.60221,-9.969355 0,-5.07369 1.5132,-9.257258 1.51321,-4.272581 4.36159,-7.298993 2.9374,-3.115423 7.12097,-4.806653 4.18357,-1.780242 9.43529,-1.780242 5.78578,0 10.05836,0.890121 4.3616,0.801109 7.29899,1.513206 v 41.301614 q 0,10.681452 -5.51875,15.488106 -5.51875,4.806653 -16.73427,4.806653 -4.36159,0 -8.27813,-0.712097 -3.82752,-0.712096 -6.6759,-1.69123 l 1.5132,-7.20998 q 2.49234,0.979133 6.05283,1.69123 3.64949,0.801109 7.56602,0.801109 7.38801,0 10.59244,-2.937399 3.29345,-2.9374 3.29345,-9.346271 z m -0.089,-34.358671 q -1.24617,-0.356048 -3.38246,-0.623084 -2.04728,-0.356049 -5.60776,-0.356049 -6.67591,0 -10.32541,4.361593 -3.56048,4.361593 -3.56048,11.571573 0,4.005545 0.97913,6.853932 1.06815,2.848387 2.75938,4.717641 1.78024,1.869254 4.00554,2.759375 2.31432,0.890121 4.71764,0.890121 3.29345,0 6.05283,-0.890121 2.75937,-0.979133 4.36159,-2.225302 z"
       style="font-size:89.0121px;line-height:1.25;font-family:Ubuntu;-inkscape-font-specification:Ubuntu;letter-spacing:-6.47363px"
       id="path1" />
    <path
       d="m 179.55295,15.191667 q 1.06815,0 2.40333,0.178024 1.42419,0.08901 2.75938,0.356049 1.33518,0.178024 2.40332,0.44506 1.15716,0.178024 1.69123,0.356049 l -1.42419,7.20998 q -0.97913,-0.356049 -3.29345,-0.801109 -2.2253,-0.534073 -5.78578,-0.534073 -2.31432,0 -4.62863,0.534073 -2.22531,0.44506 -2.9374,0.623084 v 38.898288 h -8.27813 V 18.129066 q 2.9374,-1.068145 7.29899,-1.958266 4.3616,-0.979133 9.79133,-0.979133 z"
       style="font-size:89.0121px;line-height:1.25;font-family:Ubuntu;-inkscape-font-specification:Ubuntu;letter-spacing:-6.47363px"
       id="path2" />
    <path
       d="m 227.19865,61.121911 q -2.84838,0.712097 -7.56602,1.513205 -4.62863,0.801109 -10.77047,0.801109 -5.34072,0 -8.99022,-1.513205 -3.6495,-1.602218 -5.8748,-4.450605 -2.2253,-2.848388 -3.20443,-6.675908 -0.97914,-3.916532 -0.97914,-8.634174 V 16.1708 h 8.27813 v 24.211291 q 0,8.45615 2.67036,12.105646 2.67036,3.649496 8.99022,3.649496 1.33518,0 2.75938,-0.08901 1.42419,-0.08901 2.67036,-0.178024 1.24617,-0.178024 2.2253,-0.267036 1.06815,-0.178025 1.51321,-0.356049 V 16.1708 h 8.27812 z"
       style="font-size:89.0121px;line-height:1.25;font-family:Ubuntu;-inkscape-font-specification:Ubuntu;letter-spacing:-6.47363px"
       id="path3" />
    <path
       d="m 267.10028,39.402958 q 0,-8.100101 -4.00555,-12.461694 -4.00554,-4.361593 -10.68145,-4.361593 -3.73851,0 -5.8748,0.267037 -2.04728,0.267036 -3.29345,0.623084 v 29.195969 q 1.51321,1.24617 4.3616,2.403327 2.84838,1.157157 6.23084,1.157157 3.56049,0 6.05283,-1.246169 2.58135,-1.335182 4.18356,-3.560484 1.60222,-2.314315 2.31432,-5.340726 0.7121,-3.115424 0.7121,-6.675908 z m 8.63417,0 q 0,5.251714 -1.42419,9.702319 -1.33519,4.450605 -4.00555,7.655041 -2.67036,3.204435 -6.58689,4.984677 -3.82752,1.780242 -8.8122,1.780242 -4.00555,0 -7.12097,-1.068145 -3.02641,-1.068145 -4.53962,-2.047278 v 18.514517 h -8.27812 V 17.594994 q 2.9374,-0.712097 7.29899,-1.513206 4.4506,-0.890121 10.23639,-0.890121 5.34073,0 9.61331,1.69123 4.27258,1.69123 7.29899,4.806653 3.02641,3.115424 4.62863,7.655041 1.69123,4.450605 1.69123,10.058367 z"
       style="font-size:89.0121px;line-height:1.25;font-family:Ubuntu;-inkscape-font-specification:Ubuntu;letter-spacing:-6.47363px"
       id="path4" />
    <path
       d="m 274.24523,71.091266 q 0.97913,0.445061 2.49234,0.801109 1.60222,0.44506 3.11542,0.44506 4.89567,0 7.65504,-2.225302 2.75938,-2.136291 4.98468,-7.031956 Q 286.88495,52.398725 281.98928,40.471104 277.18263,28.45447 273.97819,16.1708 h 8.90121 q 0.97914,4.005545 2.31432,8.634174 1.42419,4.628629 3.11542,9.524295 1.69123,4.895665 3.6495,9.791331 1.95826,4.895665 4.09456,9.435282 3.38246,-9.34627 5.87479,-18.514517 2.49234,-9.168246 4.71765,-18.870565 h 8.54516 q -3.20444,13.084779 -7.12097,25.190425 -3.91653,12.016633 -8.45615,22.520061 -1.78024,4.005544 -3.73851,6.853932 -1.86925,2.937399 -4.18357,4.806653 -2.31431,1.869254 -5.25171,2.759375 -2.84839,0.890121 -6.49788,0.890121 -0.97914,0 -2.04728,-0.178024 -1.06815,-0.08901 -2.13629,-0.356048 -0.97914,-0.178025 -1.86926,-0.445061 -0.80111,-0.267036 -1.15715,-0.44506 z"
       style="font-size:89.0121px;line-height:1.25;font-family:Ubuntu;-inkscape-font-specification:Ubuntu;letter-spacing:-6.47363px"
       id="path5" />
    <path
       d="m 312.63367,31.925942 h 21.98598 v 7.744053 h -21.98598 z"
       style="font-size:89.0121px;line-height:1.25;font-family:Ubuntu;-inkscape-font-specification:Ubuntu;letter-spacing:-6.47363px"
       id="path6" />
    <path
       d="m 348.35176,56.493282 q 5.07369,0 7.47702,-1.335182 2.49233,-1.335181 2.49233,-4.272581 0,-3.026411 -2.40332,-4.806653 -2.40333,-1.780242 -7.92208,-4.005545 -2.67036,-1.068145 -5.1627,-2.13629 -2.40333,-1.157157 -4.18357,-2.670363 -1.78024,-1.513206 -2.84839,-3.649496 -1.06814,-2.136291 -1.06814,-5.251714 0,-6.141835 4.53962,-9.702319 4.53961,-3.649496 12.37268,-3.649496 1.95826,0 3.91653,0.267036 1.95827,0.178024 3.6495,0.534073 1.69123,0.267036 2.93739,0.623084 1.33519,0.356049 2.04728,0.623085 l -1.5132,7.120968 q -1.33518,-0.712097 -4.18357,-1.424193 -2.84839,-0.801109 -6.85393,-0.801109 -3.47147,0 -6.05283,1.424193 -2.58135,1.335182 -2.58135,4.272581 0,1.513206 0.53408,2.670363 0.62308,1.157157 1.78024,2.136291 1.24617,0.890121 3.02641,1.691229 1.78024,0.801109 4.27258,1.69123 3.29345,1.24617 5.8748,2.492339 2.58135,1.157157 4.36159,2.759375 1.86926,1.602218 2.84839,3.916533 0.97913,2.225302 0.97913,5.51875 0,6.408871 -4.80665,9.702319 -4.71764,3.293447 -13.52984,3.293447 -6.14184,0 -9.61331,-1.068145 -3.47147,-0.979133 -4.71764,-1.513205 l 1.51321,-7.120968 q 1.42419,0.534072 4.53961,1.602217 3.11543,1.068146 8.27813,1.068146 z"
       style="font-size:89.0121px;line-height:1.25;font-family:Ubuntu;-inkscape-font-specification:Ubuntu;letter-spacing:-6.47363px"
       id="path7" />
    <path
       d="m 386.47312,56.493282 q 2.9374,0 5.1627,-0.08901 2.31431,-0.178024 3.82752,-0.534072 V 42.073321 q -0.89012,-0.44506 -2.9374,-0.712096 -1.95827,-0.356049 -4.80665,-0.356049 -1.86926,0 -4.00555,0.267036 -2.04728,0.267037 -3.82752,1.157158 -1.69123,0.801109 -2.84839,2.314314 -1.15715,1.424194 -1.15715,3.827521 0,4.450605 2.84838,6.230847 2.84839,1.69123 7.74406,1.69123 z m -0.7121,-41.479639 q 4.98468,0 8.36714,1.335181 3.47147,1.24617 5.51875,3.649496 2.13629,2.314315 3.02641,5.607763 0.89012,3.204435 0.89012,7.120968 v 28.928932 q -1.06814,0.178025 -3.02641,0.534073 -1.86925,0.267036 -4.27258,0.534073 -2.40333,0.267036 -5.25172,0.44506 -2.75937,0.267036 -5.51875,0.267036 -3.91653,0 -7.20998,-0.801109 -3.29344,-0.801108 -5.69677,-2.492338 -2.40333,-1.780242 -3.73851,-4.62863 -1.33518,-2.848387 -1.33518,-6.853931 0,-3.827521 1.51321,-6.586896 1.60221,-2.759375 4.27258,-4.450605 2.67036,-1.69123 6.23084,-2.492338 3.56049,-0.801109 7.47702,-0.801109 1.24617,0 2.58135,0.178024 1.33518,0.08901 2.49234,0.356048 1.24617,0.178024 2.13629,0.356049 0.89012,0.178024 1.24617,0.267036 v -2.314315 q 0,-2.047278 -0.44506,-4.005544 -0.44506,-2.047279 -1.60222,-3.560484 -1.15716,-1.602218 -3.20443,-2.492339 -1.95827,-0.979133 -5.16271,-0.979133 -4.09455,0 -7.20998,0.623085 -3.02641,0.534072 -4.53961,1.157157 l -0.97914,-6.853932 q 1.60222,-0.712097 5.34073,-1.335181 3.73851,-0.712097 8.1001,-0.712097 z"
       style="font-size:89.0121px;line-height:1.25;font-family:Ubuntu;-inkscape-font-specification:Ubuntu;letter-spacing:-6.47363px"
       id="path8" />
    <path
       d="m 410.79762,17.505982 q 2.84839,-0.712097 7.56603,-1.513206 4.71764,-0.801109 10.85947,-0.801109 5.51875,0 9.16825,1.602218 3.6495,1.513206 5.78579,4.361593 2.2253,2.759375 3.11542,6.675907 0.89012,3.916533 0.89012,8.634174 v 25.991533 h -8.27812 V 38.245801 q 0,-4.272581 -0.62309,-7.298992 -0.53407,-3.026412 -1.86925,-4.895666 -1.33518,-1.869254 -3.56049,-2.670363 -2.2253,-0.890121 -5.51875,-0.890121 -1.33518,0 -2.75937,0.08901 -1.4242,0.08901 -2.75938,0.267037 -1.24617,0.08901 -2.31431,0.267036 -0.97914,0.178024 -1.4242,0.267036 V 62.45709 h -8.27812 z"
       style="font-size:89.0121px;line-height:1.25;font-family:Ubuntu;-inkscape-font-specification:Ubuntu;letter-spacing:-6.47363px"
       id="path9" />
    <path
       d="m 475.53362,63.525237 q -5.60777,0 -9.88035,-1.780242 -4.18357,-1.780242 -7.12096,-4.984677 -2.84839,-3.204436 -4.27259,-7.566029 -1.42419,-4.450605 -1.42419,-9.791331 0,-5.340726 1.51321,-9.791331 1.60221,-4.450605 4.4506,-7.65504 2.84839,-3.293448 6.94295,-5.07369 4.18356,-1.869254 9.25725,-1.869254 3.11543,0 6.23085,0.534072 3.11542,0.534073 5.96381,1.69123 l -1.86925,7.031956 q -1.86926,-0.890121 -4.3616,-1.424193 -2.40332,-0.534073 -5.1627,-0.534073 -6.94294,0 -10.68145,4.361593 -3.6495,4.361593 -3.6495,12.72873 0,3.738509 0.80111,6.853932 0.89012,3.115424 2.67037,5.340726 1.86925,2.225303 4.71764,3.471472 2.84838,1.157157 6.94294,1.157157 3.29345,0 5.96381,-0.623084 2.67037,-0.623085 4.18357,-1.335182 l 1.15716,6.942944 q -0.7121,0.44506 -2.04728,0.890121 -1.33518,0.356048 -3.02641,0.623085 -1.69123,0.356048 -3.6495,0.534072 -1.86925,0.267036 -3.64949,0.267036 z"
       style="font-size:89.0121px;line-height:1.25;font-family:Ubuntu;-inkscape-font-specification:Ubuntu;letter-spacing:-6.47363px"
       id="path10" />
    <path
       d="m 505.99985,56.493282 q 2.9374,0 5.1627,-0.08901 2.31432,-0.178024 3.82752,-0.534072 V 42.073321 q -0.89012,-0.44506 -2.9374,-0.712096 -1.95826,-0.356049 -4.80665,-0.356049 -1.86925,0 -4.00554,0.267036 -2.04728,0.267037 -3.82752,1.157158 -1.69123,0.801109 -2.84839,2.314314 -1.15716,1.424194 -1.15716,3.827521 0,4.450605 2.84839,6.230847 2.84839,1.69123 7.74405,1.69123 z m -0.7121,-41.479639 q 4.98468,0 8.36714,1.335181 3.47147,1.24617 5.51875,3.649496 2.13629,2.314315 3.02641,5.607763 0.89012,3.204435 0.89012,7.120968 v 28.928932 q -1.06814,0.178025 -3.02641,0.534073 -1.86925,0.267036 -4.27258,0.534073 -2.40332,0.267036 -5.25171,0.44506 -2.75938,0.267036 -5.51875,0.267036 -3.91653,0 -7.20998,-0.801109 -3.29345,-0.801108 -5.69678,-2.492338 -2.40332,-1.780242 -3.7385,-4.62863 -1.33519,-2.848387 -1.33519,-6.853931 0,-3.827521 1.51321,-6.586896 1.60222,-2.759375 4.27258,-4.450605 2.67036,-1.69123 6.23085,-2.492338 3.56048,-0.801109 7.47701,-0.801109 1.24617,0 2.58135,0.178024 1.33519,0.08901 2.49234,0.356048 1.24617,0.178024 2.13629,0.356049 0.89012,0.178024 1.24617,0.267036 v -2.314315 q 0,-2.047278 -0.44506,-4.005544 -0.44506,-2.047279 -1.60222,-3.560484 -1.15715,-1.602218 -3.20443,-2.492339 -1.95827,-0.979133 -5.1627,-0.979133 -4.09456,0 -7.20998,0.623085 -3.02641,0.534072 -4.53962,1.157157 l -0.97913,-6.853932 q 1.60221,-0.712097 5.34072,-1.335181 3.73851,-0.712097 8.1001,-0.712097 z"
       style="font-size:89.0121px;line-height:1.25;font-family:Ubuntu;-inkscape-font-specification:Ubuntu;letter-spacing:-6.47363px"
       id="path11" />
  </g>
  <g
     id="g1"
     transform="matrix(0.34429624,0,0,0.34429624,-82.52315,-50.944584)">
    <path
       style="fill:url(#linearGradient1);fill-opacity:1"
       d="m 373.38861,147.96953 c -11.15912,0.0519 -21.8158,1.00354 -31.19259,2.66278 -27.62286,4.88004 -32.63809,15.09441 -32.63809,33.93144 v 24.87798 h 65.27619 v 8.29267 h -65.27619 -24.49759 c -18.97108,0 -35.5827,11.40269 -40.7786,33.09457 -5.9934,24.86388 -6.25926,40.37937 0,66.34129 4.64005,19.32504 15.72116,33.09457 34.69224,33.09457 h 22.44345 v -29.82315 c 0,-21.54546 18.64163,-40.55036 40.77859,-40.55036 h 65.20011 c 18.1494,0 32.63809,-14.94364 32.63809,-33.17065 v -62.15692 c 0,-17.69022 -14.9237,-30.97902 -32.63809,-33.93144 -11.21348,-1.86664 -22.84843,-2.71464 -34.00752,-2.66278 z m -35.30088,20.0089 c 6.74257,0 12.2488,5.59613 12.2488,12.47703 -3e-5,6.85648 -5.50623,12.40095 -12.2488,12.40095 -6.76676,0 -12.24879,-5.54447 -12.24879,-12.40095 -3e-5,-6.8809 5.48203,-12.47703 12.24879,-12.47703 z"
       id="path1948"
       inkscape:connector-curvature="0" />
    <path
       style="fill:url(#linearGradient2);fill-opacity:1"
       d="m 448.17473,217.7344 v 28.98627 c 0,22.47266 -19.05249,41.38723 -40.7786,41.38723 h -65.20011 c -17.85942,0 -32.63809,15.28523 -32.63809,33.17065 v 62.15691 c 0,17.69022 15.38286,28.09541 32.63809,33.17065 20.66277,6.07567 40.47728,7.1737 65.20011,0 16.43353,-4.75805 32.63809,-14.33364 32.63809,-33.17065 V 358.5575 h -65.2001 v -8.29267 h 65.2001 32.6381 c 18.97108,0 26.04048,-13.23274 32.63807,-33.09457 6.81509,-20.44746 6.52511,-40.11099 0,-66.34129 -4.6884,-18.88583 -13.64287,-33.09457 -32.63807,-33.09457 z m -36.67031,157.40842 c 6.76674,0 12.2488,5.54445 12.2488,12.40093 -3e-5,6.88087 -5.48206,12.47703 -12.2488,12.47703 -6.74259,0 -12.24879,-5.59616 -12.24879,-12.47703 0,-6.85648 5.50618,-12.40093 12.24879,-12.40093 z"
       id="path1950"
       inkscape:connector-curvature="0" />
  </g>
</svg>
